<?xml version="1.0" encoding="UTF-8"?>
<svg id="Layer_2" data-name="Layer 2" xmlns="http://www.w3.org/2000/svg" width="68" height="68" viewBox="0 0 68 68">
  <g id="icons">
    <g id="after_effects">
      <path id="Vector" d="M55.81,0H12.2C5.46,0,0,5.46,0,12.2v43.61c0,6.74,5.46,12.19,12.2,12.19h43.61c6.74,0,12.19-5.46,12.19-12.19V12.2c0-6.74-5.46-12.2-12.19-12.2Z" style="fill: #00005b;"/>
      <path class="iconForeground" id="Vector_2" data-name="Vector 2" d="M17.38,18.05h10.01l11.23,31.35h-9.17l-1.54-4.77h-11.74l-1.54,4.77H5.82l11.56-31.35ZM25.47,37.19l-3.42-10.53-3.42,10.53h6.83Z" style="fill: #99f;"/>
      <path class="iconForeground" id="Vector_3" data-name="Vector 3" d="M62.18,36.48c0,1.12-.09,2.34-.23,3.28h-15.3c.94,2.34,3.18,3.46,6.69,3.46,2.53,0,4.73-.47,6.92-1.5l.09,6.5c-2.39,1.22-4.96,1.64-8.28,1.64-8.19,0-13.66-4.54-13.66-12.77,0-7.53,5.24-12.54,12.16-12.54s11.6,4.58,11.6,11.93ZM46.36,34.42h8.19c-.19-2.2-1.54-3.74-3.93-3.74s-3.74,1.22-4.26,3.74Z" style="fill: #99f;"/>
    </g>
  </g>
</svg>