<?xml version="1.0" encoding="UTF-8"?>
<svg id="Layer_2" data-name="Layer 2" xmlns="http://www.w3.org/2000/svg" width="68" height="68" viewBox="0 0 68 68">
  <g id="icons">
    <g id="css">
      <path id="bg" d="M0,0h57.12c6.01,0,10.88,4.87,10.88,10.88v46.24c0,6.01-4.87,10.88-10.88,10.88H10.88c-6.01,0-10.88-4.87-10.88-10.88V0Z" style="fill: #639;"/>
      <path id="fg" d="M24.35,62.56c-4.37,0-7.06-2.46-7.01-6.99v-11.45c0-2.29.67-4.04,2.02-5.23,2.41-2.32,8.01-2.47,10.38.04,1.46,1.28,2.01,3.91,1.88,6.36h-5.01c.04-.96-.01-2.42-.58-2.97-.74-.99-2.68-.88-3.19.16-.32.56-.47,1.39-.47,2.49v9.94c0,2.08.72,3.14,2.17,3.16.68,0,1.19-.25,1.54-.74.49-.58.57-1.88.53-2.81h5.01c.34,4.76-2.47,8.1-7.26,8.04h0ZM40.27,62.56c-4.84.07-7-3.38-6.87-8.04h4.73c-.13,2.03.57,3.89,2.24,3.76.75,0,1.27-.23,1.58-.7.58-.86.69-3.33-.14-4.29-.58-.92-2.65-1.73-3.75-2.28-1.57-.75-2.69-1.64-3.38-2.67-1.56-2.29-1.41-7.31.77-9.34,2.12-2.51,7.66-2.63,9.78-.05,1.31,1.33,1.88,3.94,1.77,6.34h-4.56c.04-.99-.05-2.58-.44-3.16-.27-.49-.78-.74-1.52-.74-1.33,0-2,.8-2,2.39.01,1.69.67,2.38,2.21,3.09,1.99.77,4.52,2.09,5.43,3.69,2.73,4.86.86,12.3-5.85,12.01h0ZM55.55,62.56c-4.84.07-7-3.38-6.87-8.04h4.73c-.13,2.03.57,3.89,2.24,3.76.75,0,1.27-.23,1.58-.7.58-.86.69-3.33-.14-4.29-.58-.92-2.65-1.73-3.75-2.28-1.57-.75-2.69-1.64-3.38-2.67-1.56-2.29-1.41-7.31.77-9.34,2.12-2.51,7.66-2.63,9.78-.05,1.31,1.33,1.88,3.94,1.77,6.34h-4.56c.04-.99-.05-2.58-.44-3.16-.27-.49-.78-.74-1.52-.74-1.33,0-2,.8-2,2.39.01,1.69.67,2.38,2.21,3.09,1.99.77,4.52,2.09,5.43,3.69,2.73,4.86.86,12.3-5.85,12.01h0Z" style="fill: #fff;"/>
    </g>
  </g>
</svg>