<?xml version="1.0" encoding="UTF-8"?>
<svg id="Layer_2" data-name="Layer 2" xmlns="http://www.w3.org/2000/svg" width="109" height="42" viewBox="0 0 108.93 40">
  <g id="icons">
    <g id="gsap">
      <path id="path32" d="M55.46,11.53c-.01.39-.34.71-.73.71h-7.53c-.49,0-.91-.4-.91-.89,0-2.2-.76-3.27-2.31-3.27s-2.56.95-2.59,2.62c-.03,1.86,1.02,3.55,4.01,6.45,3.94,3.7,5.52,6.97,5.45,11.31-.12,7-4.89,11.53-12.13,11.53-3.7,0-6.53-.99-8.41-2.94-1.91-1.98-2.78-4.89-2.6-8.65.01-.39.34-.71.73-.71h7.79c.22,0,.43.11.56.28.12.14.17.33.14.51-.09,1.35.15,2.37.68,2.93.34.36.82.55,1.41.55,1.44,0,2.28-1.02,2.31-2.79.03-1.53-.46-2.87-3.09-5.59-3.41-3.33-6.46-6.77-6.37-12.17.06-3.14,1.3-6,3.51-8.08,2.33-2.19,5.52-3.35,9.23-3.35,3.71.03,6.52,1.09,8.36,3.15,1.74,1.95,2.57,4.77,2.48,8.39h0Z" style="fill: #00e559;"/>
      <path id="path34" d="M78.79,38.68l.05-37.24c0-.39-.3-.7-.69-.71,0,0-.01,0-.02,0h-11.65c-.39,0-.56.34-.68.56l-16.87,37.17h0s0,.02,0,.02c-.19.46.17.95.66.95h8.14c.44,0,.73-.13.87-.41l1.62-3.89c.2-.52.24-.57.8-.57h7.78c.54,0,.55.01.54.54l-.17,3.61c0,.39.3.7.69.71,0,0,0,0,.01,0h8.23c.21,0,.4-.09.54-.24.12-.14.17-.32.14-.49h0ZM64.38,26.25c-.06,0-.12,0-.18,0-.11,0-.19-.1-.18-.21,0-.01,0-.02,0-.03.02-.05.04-.13.07-.22l5.83-14.44c.05-.14.11-.28.18-.42.09-.19.21-.21.25-.06.03.12-.67,14.82-.67,14.82-.05.55-.08.57-.62.62l-4.68-.05h-.01,0s0,0,0,0Z" style="fill: #00e559;"/>
      <path id="path36" d="M95.39.73h-6.19c-.33,0-.69.17-.78.56l-8.61,37.37c-.04.17,0,.35.12.48.15.17.36.27.58.27h7.73c.42,0,.7-.2.78-.56l.94-4.24c.07-.33-.05-.59-.34-.74-.14-.07-.28-.14-.42-.22l-1.34-.7-1.33-.7-.52-.27c-.09-.04-.14-.13-.14-.23,0-.14.12-.26.27-.26l4.24.02c1.27,0,2.53-.08,3.78-.31,8.77-1.62,14.6-8.65,14.77-18.21.14-8.16-4.41-12.29-13.53-12.29h0ZM93.29,22.97h-.17c-.37,0-.44-.04-.45-.05,0,0,2.44-10.76,2.44-10.78.06-.31.06-.49-.13-.59-.25-.14-3.82-2.02-3.82-2.02-.08-.04-.14-.13-.13-.23,0-.14.12-.26.26-.26h5.65c1.76.05,2.74,1.63,2.69,4.32-.08,4.65-2.29,9.45-6.35,9.62h0Z" style="fill: #00e559;"/>
      <g id="g71">
        <path id="path60" d="M31.75,18.77v.02l-1.43,6.22c-.08.35-.43.61-.83.61h-1.73c-.13,0-.24.09-.28.21-1.6,5.42-3.76,9.14-6.62,11.38-2.43,1.9-5.42,2.79-9.43,2.79-3.59,0-6.02-1.16-8.07-3.44C.64,33.55-.49,28.61.19,22.66,1.42,11.49,7.21.22,18.37.22c3.39-.03,6.06,1.02,7.91,3.11,1.96,2.21,2.95,5.54,2.96,9.9-.01.4-.33.71-.73.71h-8.17c-.3,0-.54-.25-.54-.55-.07-3.01-.96-4.48-2.74-4.48-3.13,0-4.98,4.25-5.96,6.61-1.37,3.29-2.07,6.87-1.93,10.43.07,1.66.33,3.99,1.91,4.96,1.4.86,3.39.29,4.59-.66,1.21-.95,2.18-2.59,2.58-4.09.06-.21.06-.37,0-.44-.06-.07-.22-.09-.34-.09h-2.1c-.22,0-.44-.1-.58-.27-.11-.13-.15-.31-.12-.48l1.43-6.23c.07-.32.36-.56.72-.6v-.02h13.77s.07,0,.1,0c.36.05.61.38.6.74h0Z" style="fill: #00e559;"/>
      </g>
    </g>
  </g>
</svg>