<?xml version="1.0" encoding="UTF-8"?>
<svg id="Layer_2" data-name="Layer 2" xmlns="http://www.w3.org/2000/svg" width="48.18" height="68" viewBox="0 0 48.18 68">
  <g id="icons">
    <g id="html">
      <path d="M4.49,0h3.05v3.03h2.82V0h3.05v9.16h-3.05v-3.05h-2.79v3.05h-3.08M17.45,3.05h-2.7V0h8.46v3.05h-2.71v6.11h-3.05M24.56,0h3.2l1.97,3.23,1.97-3.23h3.2v9.16h-3.05v-4.54l-2.14,3.29-2.14-3.29v4.54h-3M36.4,0h3.05v6.14h4.33v3.03h-7.38"/>
      <path d="M4.38,62.55L0,13.36h48.18l-4.38,49.17-19.75,5.47" style="fill: #e44d26;"/>
      <path d="M24.09,63.82V17.4h19.7l-3.76,41.97" style="fill: #f16529;"/>
      <path d="M8.95,23.41h15.14v6.03h-8.53l.56,6.18h7.97v6.02h-13.49M10.86,44.66h6.06l.42,4.82,6.75,1.81v6.3l-12.38-3.45" style="fill: #ebebeb;"/>
      <path d="M39.18,23.41h-15.11v6.03h14.56M38.08,35.62h-14.01v6.03h7.44l-.7,7.84-6.73,1.81v6.27l12.35-3.43" style="fill: #fff;"/>
    </g>
  </g>
</svg>