<?xml version="1.0" encoding="UTF-8"?>
<svg id="Layer_2" data-name="Layer 2" xmlns="http://www.w3.org/2000/svg" width="68" height="68" viewBox="0 0 68 68">
  <g id="icons">
    <g id="javascript">
      <rect width="68" height="68" style="fill: #f7df1e;"/>
      <path d="M45.68,53.12c1.38,2.24,3.15,3.88,6.31,3.88,2.65,0,4.33-1.33,4.33-3.15,0-2.19-1.73-2.98-4.66-4.25l-1.6-.68c-4.61-1.97-7.67-4.42-7.67-9.62,0-4.79,3.65-8.45,9.35-8.45,4.06,0,6.99,1.41,9.1,5.12l-4.98,3.2c-1.09-1.97-2.28-2.74-4.11-2.74s-3.06,1.19-3.06,2.74c0,1.92,1.19,2.69,3.93,3.88l1.6.68c5.42,2.33,8.5,4.71,8.5,10.03,0,5.75-4.52,8.91-10.59,8.91s-9.77-2.82-11.65-6.53l5.18-3.01h.02ZM23.1,53.69c1,1.79,1.92,3.28,4.11,3.28s3.42-.82,3.42-4.01v-21.73h6.39v21.81c0,6.61-3.88,9.62-9.54,9.62-5.12,0-8.07-2.65-9.59-5.83l5.2-3.15Z"/>
    </g>
  </g>
</svg>