<?xml version="1.0" encoding="UTF-8"?>
<svg id="Layer_2" data-name="Layer 2" xmlns="http://www.w3.org/2000/svg" width="68" height="68" viewBox="0 0 68 68">
  <g id="icons">
    <g id="photoshop">
      <path id="Vector" d="M55.81,0H12.2C5.46,0,0,5.46,0,12.2v43.61c0,6.74,5.46,12.19,12.2,12.19h43.61c6.74,0,12.19-5.46,12.19-12.19V12.2c0-6.74-5.46-12.2-12.19-12.2Z" style="fill: #001e36;"/>
      <path id="Vector_2" data-name="Vector 2" d="M23.75,18.05c8.89,0,13.9,4.16,13.9,11.13,0,8.14-6.78,11.42-13.15,11.42h-4.3v8.8h-8.7v-31.35h12.26ZM20.19,25.49v7.67h3.84c2.67,0,4.54-1.08,4.54-3.79,0-2.48-1.59-3.88-4.35-3.88h-4.02Z" style="fill: #31a8ff;"/>
      <path id="Vector_3" data-name="Vector 3" d="M39.41,47.85l.05-7.25c2.48,1.64,5.94,2.67,8.33,2.67,1.64,0,2.39-.47,2.39-1.31,0-.94-1.03-1.31-2.99-1.92-3.79-1.12-7.95-2.67-7.95-7.63s4.16-7.86,10.2-7.86c2.85,0,5.19.42,7.25,1.31l-.05,6.92c-1.64-.98-4.87-1.87-6.97-1.87-1.54,0-2.15.47-2.15,1.17,0,.84.75,1.08,2.99,1.78,4.35,1.31,8,2.71,8,7.81s-3.98,8.14-10.2,8.14c-3.28,0-6.36-.56-8.89-1.96Z" style="fill: #31a8ff;"/>
    </g>
  </g>
</svg>