<?xml version="1.0" encoding="UTF-8"?>
<svg id="Layer_2" data-name="Layer 2" xmlns="http://www.w3.org/2000/svg" width="68" height="68" viewBox="0 0 68 68">
  <g id="icons">
    <g id="premiere">
      <path id="Vector" d="M55.81,0H12.2C5.46,0,0,5.46,0,12.2v43.61c0,6.74,5.46,12.19,12.2,12.19h43.61c6.74,0,12.19-5.46,12.19-12.19V12.2c0-6.74-5.46-12.2-12.19-12.2Z" style="fill: #00005b;"/>
      <path id="Vector_2" data-name="Vector 2" d="M26.22,18.05c8.89,0,13.9,4.16,13.9,11.13,0,8.14-6.78,11.42-13.15,11.42h-4.3v8.8h-8.7v-31.35h12.26ZM22.67,25.49v7.67h3.84c2.67,0,4.54-1.08,4.54-3.79,0-2.48-1.59-3.88-4.35-3.88h-4.02Z" style="fill: #99f;"/>
      <path id="Vector_3" data-name="Vector 3" d="M52.25,24.55c1.92,0,3.46.23,4.16.47v6.36c-.56-.14-1.64-.23-2.53-.23-1.73,0-2.71.14-3.6.47v17.78h-8.19v-22.78c2.95-1.31,5.9-2.06,10.15-2.06Z" style="fill: #99f;"/>
    </g>
  </g>
</svg>