<?xml version="1.0" encoding="UTF-8"?>
<svg id="xd" xmlns="http://www.w3.org/2000/svg" width="69.74" height="68" viewBox="0 0 69.74 68">
  <path d="M12.35,0h45.04c6.83,0,12.35,5.52,12.35,12.35v43.3c0,6.83-5.52,12.35-12.35,12.35H12.35c-6.83,0-12.35-5.52-12.35-12.35V12.35C0,5.52,5.52,0,12.35,0Z" style="fill: #470137;"/>
  <g id="Xd">
    <path d="M36.67,17.87l-8.72,14.38,9.3,15.26c.06.12.09.23.06.35s-.15.03-.32.06h-6.65c-.46,0-.78-.03-.99-.32-.61-1.22-1.25-2.41-1.86-3.63-.61-1.19-1.28-2.41-1.98-3.66s-1.39-2.5-2.09-3.78h-.06c-.61,1.25-1.28,2.5-1.95,3.75-.67,1.25-1.34,2.5-1.98,3.72-.67,1.22-1.34,2.47-2.01,3.66-.12.29-.35.32-.67.32h-6.39c-.12,0-.2.06-.2-.09-.03-.12,0-.23.06-.32l9.04-14.82-8.81-14.91c-.09-.12-.12-.23-.06-.29.06-.09.17-.12.29-.12h6.6c.15,0,.29.03.41.06.12.06.2.15.29.26.55,1.25,1.19,2.5,1.86,3.75.7,1.25,1.37,2.47,2.09,3.69.7,1.22,1.34,2.44,1.95,3.69h.06c.61-1.28,1.25-2.53,1.89-3.75.64-1.22,1.31-2.44,1.98-3.66s1.31-2.47,1.95-3.66c.03-.12.09-.23.17-.29.12-.06.23-.09.38-.06h6.13c.15-.03.29.06.32.2.03.03-.03.15-.09.2h0Z" style="fill: #ff61f6;"/>
    <path d="M50.1,48.53c-2.15.03-4.3-.41-6.25-1.31-1.83-.84-3.34-2.24-4.39-3.95-1.08-1.77-1.6-3.98-1.6-6.63-.03-2.15.52-4.27,1.6-6.13,1.1-1.89,2.7-3.46,4.62-4.5,2.03-1.13,4.48-1.69,7.35-1.69.15,0,.35,0,.61.03.26.03.55.03.9.06v-9.18c0-.2.09-.32.29-.32h5.9c.15-.03.26.09.29.2v27.72c0,.52.03,1.1.06,1.74.06.61.09,1.19.12,1.69,0,.2-.09.38-.29.46-1.51.64-3.11,1.1-4.74,1.39-1.48.26-2.96.41-4.48.41ZM52.95,42.72v-12.79c-.26-.06-.52-.12-.78-.15-.32-.03-.64-.06-.96-.06-1.13,0-2.27.23-3.28.76-.99.49-1.83,1.22-2.47,2.15-.64.93-.96,2.18-.96,3.69-.03,1.02.15,2.03.49,2.99.29.78.73,1.48,1.31,2.06.55.52,1.22.93,1.98,1.16.78.26,1.6.38,2.41.38.44,0,.84-.03,1.22-.06.38.03.7-.03,1.05-.15Z" style="fill: #ff61f6;"/>
  </g>
</svg>