<?xml version="1.0" encoding="UTF-8"?>
<svg id="INSIGNIA" xmlns="http://www.w3.org/2000/svg" width="60" height="60" viewBox="0 0 60 60">
  <path id="BACK" d="M24.31,0h35.69v35.69c0,13.42-10.89,24.31-24.31,24.31H0V24.31C0,10.89,10.89,0,24.31,0Z" style="fill: #00a1e4;"/>
  <g>
    <path id="RIGHT" d="M39.99,24.12h-7.68c1.44,1.4,2.82,2.92,3.13,5.13.44,3.16-3.85,14.05-4.88,17.45l5.39,8.3,8.88-24.42c.98-2.68-2.26-6.46-4.84-6.46Z" style="fill: #0054a6;"/>
    <path id="RIGHT-2" d="M51.08,24.12h-7.68c1.44,1.4,2.82,2.92,3.13,5.13.44,3.16-3.85,14.05-4.88,17.45l5.39,8.3,8.88-24.42c.98-2.68-2.26-6.46-4.84-6.46Z" style="fill: #0054a6;"/>
    <path id="CENTER" d="M28.63,24.12h-7.68c1.44,1.4,2.82,2.92,3.13,5.13.44,3.16-3.85,14.05-4.88,17.45l5.39,8.3,8.88-24.42c.98-2.68-2.26-6.46-4.84-6.46Z" style="fill: #0054a6;"/>
    <polygon id="LEFT" points="3.9 47.34 15.49 38.93 25.21 12.22 13.62 20.63 3.9 47.34" style="fill: #0054a6;"/>
    <path id="TOP" d="M26.13,24.17h-7.68c2.47-1.4,4.94-2.92,6.86-5.13,2.74-3.16,3.57-6.34,5.02-9.74L41.75,1l-6.08,16.71c-.98,2.68-6.96,6.46-9.55,6.46Z" style="fill: #0054a6;"/>
  </g>
</svg>