<?xml version="1.0" encoding="UTF-8"?>
<svg id="INSIGNIA" xmlns="http://www.w3.org/2000/svg" version="1.1" viewBox="0 0 60 60">
  <!-- Generator: Adobe Illustrator 30.0.0, SVG Export Plug-In . SVG Version: 2.1.1 Build 123)  -->
  <defs>
    <style>
      .st0 {
        fill: #0054a6;
      }

      .st1 {
        fill: #00a1e4;
      }
    </style>
  </defs>
  <path id="BACK" class="st1" d="M24.3,0h35.7v35.7c0,13.4-10.9,24.3-24.3,24.3H0V24.3C0,10.9,10.9,0,24.3,0Z"/>
  <g>
    <path id="RIGHT" class="st0" d="M40,24.1h-7.7c1.4,1.4,2.8,2.9,3.1,5.1.4,3.2-3.9,14-4.9,17.5l5.4,8.3,8.9-24.4c1-2.7-2.3-6.5-4.8-6.5Z"/>
    <path id="RIGHT-2" class="st0" d="M51.1,24.1h-7.7c1.4,1.4,2.8,2.9,3.1,5.1.4,3.2-3.9,14-4.9,17.5l5.4,8.3,8.9-24.4c1-2.7-2.3-6.5-4.8-6.5Z"/>
    <path id="CENTER" class="st0" d="M28.6,24.1h-7.7c1.4,1.4,2.8,2.9,3.1,5.1.4,3.2-3.9,14-4.9,17.5l5.4,8.3,8.9-24.4c1-2.7-2.3-6.5-4.8-6.5Z"/>
    <polygon id="LEFT" class="st0" points="3.9 47.3 15.5 38.9 25.2 12.2 13.6 20.6 3.9 47.3"/>
    <path id="TOP" class="st0" d="M26.1,24.2h-7.7c2.5-1.4,4.9-2.9,6.9-5.1,2.7-3.2,3.6-6.3,5-9.7L41.8,1l-6.1,16.7c-1,2.7-7,6.5-9.5,6.5Z"/>
  </g>
</svg>