<?xml version="1.0" encoding="UTF-8"?>
<svg id="LinkedIn" xmlns="http://www.w3.org/2000/svg" width="68" height="68" viewBox="0 0 68 68">
  <path d="M7.56,68h52.89c4.17,0,7.56-3.38,7.56-7.56V7.56c0-4.17-3.38-7.56-7.56-7.56H7.56C3.38,0,0,3.38,0,7.56v52.89c0,4.17,3.38,7.56,7.56,7.56Z" style="fill: #007ebb; fill-rule: evenodd;"/>
  <path d="M58.56,58.56h-10.09v-17.19c0-4.71-1.79-7.35-5.52-7.35-4.06,0-6.18,2.74-6.18,7.35v17.19h-9.72V25.81h9.72v4.41s2.92-5.41,9.87-5.41,11.92,4.24,11.92,13.01v20.73ZM15.44,21.53c-3.31,0-6-2.71-6-6.04s2.68-6.04,6-6.04,6,2.71,6,6.04-2.68,6.04-6,6.04ZM10.42,58.56h10.14V25.81h-10.14v32.74Z" style="fill: #fff; fill-rule: evenodd;"/>
</svg>